<?xml version="1.0" encoding="utf-8"?>
<svg width="572.4395px" height="167px" viewBox="0 0 572.4395 167" version="1.1" xmlns:xlink="http://www.w3.org/1999/xlink" xmlns="http://www.w3.org/2000/svg">
  <g id="Group-7">
    <g id="Group-4">
      <path d="M123.799 0.541106C122.192 1.11618 119.044 3.02303 110.386 8.56204C107.401 10.4689 102.843 13.3746 100.219 15.0393C94.5452 18.611 79.4262 28.2361 77.0977 29.7495C76.2122 30.3246 71.3912 33.3816 66.439 36.5295C57.3217 42.2804 44.8919 50.2105 32.823 57.9288C29.2154 60.2291 24.8535 63.0138 23.1482 64.0732C21.4427 65.1628 18.1304 67.2815 15.769 68.7949C13.4405 70.278 10.2265 72.3362 8.61949 73.3048C3.70008 76.3619 1.0108 79.8427 0.190899 84.171C-1.12095 91.1325 4.48718 98.4573 12.1287 99.8194C13.7029 100.092 20.9836 100.606 35.6107 101.393C39.1198 101.575 42.1043 101.847 42.2355 101.938C42.3666 102.059 38.1688 107.477 32.8886 113.954C21.4755 127.999 20.1309 130.148 19.0486 135.838C18.4255 138.986 18.3599 154.634 18.9175 157.116C19.7702 160.748 22.5578 164.169 25.9686 165.773C31.216 168.194 37.7096 166.953 41.6451 162.746C42.5962 161.717 58.1088 141.559 68.6035 127.696C72.4734 122.55 78.016 115.407 78.3767 115.074C78.7375 114.711 80.1477 115.559 92.3479 123.519C93.3317 124.185 95.6603 125.698 97.4968 126.879C99.3334 128.089 103.531 130.814 106.844 132.963C114.157 137.745 115.731 138.502 119.044 138.895C126.39 139.743 132.49 136.171 135.311 129.361C136.262 127.06 136.163 130.662 137.639 32.3525L138 8.28963L137.278 6.56438C136.065 3.59815 134.032 1.69129 130.818 0.571347C128.653 -0.185332 125.833 -0.185332 123.799 0.541106L123.799 0.541106ZM127.079 25.2396C126.948 33.3817 126.685 51.4515 126.456 65.3445C126.259 79.2374 125.964 98.639 125.767 108.446C125.472 125.456 125.439 126.334 124.816 127.272C124.062 128.362 122.389 129.209 120.979 129.209C119.831 129.209 118.683 128.634 113.928 125.789C109.664 123.186 103.236 119.342 98.1855 116.315C96.2178 115.165 92.807 113.107 90.5441 111.745C76.3762 103.179 76.245 103.088 75.6219 103.694C75.2939 103.996 73.8181 105.873 72.3094 107.871C70.8336 109.868 68.997 112.259 68.2755 113.198C67.5212 114.106 66.2094 115.801 65.3567 116.981C64.4712 118.131 61.0276 122.672 57.6496 127.091C54.2716 131.51 49.5162 137.775 47.0893 140.984C44.6623 144.192 42.4978 146.977 42.3338 147.158C42.137 147.37 41.4483 148.278 40.7596 149.186C38.2999 152.516 36.4305 154.937 35.3483 156.178C34.3644 157.268 32.823 157.57 31.216 156.935C29.2482 156.178 29.0514 155.391 29.0514 147.612C29.0842 134.9 28.953 135.202 39.8741 121.794C44.4984 116.134 52.763 105.994 58.2399 99.2443C63.7169 92.4946 68.3411 86.8346 68.4723 86.6832C72.4734 82.1128 91.3968 58.5342 91.5607 57.9591C91.7903 57.1116 90.9704 55.5074 90.2161 55.235C89.9209 55.1442 89.1994 55.0534 88.6091 55.0534C87.6908 55.0534 87.1005 55.4469 84.4768 57.9894C81.8203 60.5319 69.9153 71.8217 52.8286 87.9847L48.2371 92.313L37.5784 91.6774C13.3749 90.2246 14.49 90.3456 13.2109 89.4376C11.2432 88.0453 10.7184 85.3212 12.0959 83.5051C12.4894 82.9603 14.2276 81.6285 15.933 80.5389C22.6562 76.3014 29.9369 71.6704 34.3972 68.8555C35.9714 67.8264 39.8413 65.3747 42.9897 63.377C46.1382 61.3794 52.8614 57.0813 57.9776 53.8427C71.5879 45.2164 88.2155 34.6227 93.6597 31.1419C95.6275 29.9009 98.7103 27.9032 100.547 26.753C102.351 25.5726 104.909 23.9381 106.221 23.0907C107.532 22.2734 110.648 20.2757 113.173 18.6715C115.699 17.0976 119.831 14.4946 122.356 12.8904C124.882 11.2862 127.013 10.0755 127.112 10.1966C127.243 10.3176 127.21 17.0673 127.079 25.2396L127.079 25.2396Z" id="Shape" fill="#E2007A" fill-rule="evenodd" stroke="none" />
    </g>
    <g id="Group-6" transform="translate(158.43951 34.060486)">
      <g id="Group-5" transform="translate(26.999878 45)">
        <g id="Group-2">
          <path d="M40.7818 1.01924C37.775 2.29534 35.0647 5.32023 33.9213 8.72321C32.1003 14.1586 32.312 27.8651 34.3024 32.4496C35.4882 35.1437 37.3939 37.1288 40.2313 38.6412C42.3064 39.7755 43.0686 39.9173 47.0071 39.9646C52.1736 39.9646 54.9686 39.0666 57.6366 36.5143C61.0245 33.2531 61.9986 28.9994 61.7445 18.176C61.6174 11.5591 61.448 10.3774 60.601 8.15607C59.3729 5.08393 56.3661 1.9645 53.5288 0.830188C50.522 -0.351414 43.7462 -0.256874 40.7818 1.01924L40.7818 1.01924ZM50.3527 4.75306C52.8089 5.50928 54.5876 7.21077 55.7733 9.85756C56.7897 12.2207 56.8744 12.8352 56.9168 19.3103C56.9591 27.6287 56.4509 30.1337 54.2064 32.6387C52.2584 34.8128 49.5904 35.7108 46.1178 35.3327C43.1534 34.9546 41.5865 34.1511 40.0619 32.166C38.1562 29.6138 37.5633 26.2581 37.7751 18.7431C37.9021 12.7879 38.0292 11.8426 38.9609 9.71577C40.0196 7.39985 42.4335 5.03665 44.2545 4.61127C45.9061 4.23317 48.9552 4.28043 50.3527 4.75306L50.3527 4.75306Z" id="Shape" fill="#003293" fill-rule="evenodd" stroke="none" />
          <path d="M143.181 0.54656C139.963 1.63362 136.998 4.46946 135.558 7.73065C133.483 12.5043 133.483 27.4396 135.558 32.4023C136.744 35.1909 139.666 38.0267 142.419 39.1138C145.426 40.2954 151.863 40.2954 154.827 39.1138C157.664 38.0267 160.248 35.4745 161.645 32.4496C162.704 30.1809 162.789 29.6138 162.958 21.8153C163.212 10.7082 162.365 6.92717 158.893 3.52416C156.267 1.01919 154.234 0.310226 149.279 0.168433C146.738 0.121179 143.986 0.262973 143.181 0.54656L143.181 0.54656ZM152.074 4.84749C154.658 5.79276 156.563 7.87238 157.368 10.5664C158.342 13.7331 158.511 25.6908 157.58 28.6212C156.14 33.3003 153.303 35.4744 148.644 35.4744C144.113 35.4744 141.021 33.253 139.666 28.9993C138.904 26.5416 138.904 13.7804 139.709 10.8973C140.344 8.39227 142.758 5.65097 144.875 4.89475C146.823 4.18581 150.338 4.13853 152.074 4.84749L152.074 4.84749Z" id="Shape" fill="#003293" fill-rule="evenodd" stroke="none" />
          <path d="M0.0846941 19.9719L0.211743 39.4919L1.43986 39.6337C2.07509 39.7282 3.09146 39.6809 3.64199 39.5391L4.65837 39.2556L4.65837 31.7406L4.65837 24.2257L11.773 24.0366C17.9982 23.8476 19.0993 23.7058 21.0897 22.7605C25.3669 20.6336 27.315 16.8998 26.9762 11.5118C26.6374 6.07641 24.6047 3.05152 20.158 1.35003C18.3794 0.688347 16.4737 0.546554 8.97794 0.499268L0 0.499268L0.0846941 19.9719L0.0846941 19.9719ZM19.057 5.93462C21.7673 7.68339 22.826 12.1262 21.4285 15.86C20.4121 18.5068 18.1677 19.4521 12.0271 19.7829C9.1897 19.8774 6.3947 19.8774 5.75945 19.6884L4.65839 19.4048L4.65839 12.0316L4.65839 4.65851L11.1378 4.84756C16.6854 4.98935 17.7865 5.13114 19.057 5.93462L19.057 5.93462Z" id="Shape" fill="#003293" fill-rule="evenodd" stroke="none" />
          <path d="M70.5531 1.53908C70.0873 3.4769 70.2566 37.8377 70.7225 38.8302C71.2307 39.87 74.0257 40.1063 74.8727 39.161C75.2114 38.7829 75.3809 36.3252 75.3809 31.1262L75.3809 23.6585L80.1663 23.6585L84.9093 23.6585L89.1019 31.457C92.1086 37.0814 93.5485 39.3501 94.2261 39.5391C95.793 39.9645 97.614 39.5391 97.741 38.7357C97.8257 38.3103 96.0471 34.5765 93.8026 30.4645L89.7794 22.9495L91.431 22.1461C98.2915 18.8849 99.3926 7.58885 93.2944 3.00427C90.2876 0.782855 88.7207 0.499268 79.3616 0.499268C70.8495 0.499268 70.8072 0.499268 70.5531 1.53908L70.5531 1.53908ZM89.3561 5.93462C93.3792 8.58138 93.2522 15.4819 89.1443 18.1287C88.6785 18.4595 85.5447 18.7904 81.818 18.9322L75.381 19.1685L75.381 11.9371L75.381 4.65851L81.6486 4.84756C86.9846 4.98935 88.0856 5.13114 89.3561 5.93462L89.3561 5.93462Z" id="Shape" fill="#003293" fill-rule="evenodd" stroke="none" />
          <path d="M101.891 1.25559C101.383 2.72078 101.637 4.23322 102.442 4.75311C102.907 4.98944 105.491 5.22574 108.159 5.22574L113.071 5.22574L113.071 22.1935C113.071 40.9099 112.902 39.7283 115.781 39.7283C116.544 39.7283 117.348 39.492 117.645 39.1611C118.026 38.7358 118.153 34.2457 118.153 21.9099L118.153 5.22574L123.15 5.22574C128.952 5.22574 129.714 4.8949 129.503 2.38994L129.375 0.7357L115.781 0.593907C103.627 0.499367 102.145 0.546653 101.891 1.25559L101.891 1.25559Z" id="Shape" fill="#003293" stroke="none" />
        </g>
        <g id="Group-3" transform="translate(176.93237 0.039489746)">
          <path d="M39.1837 0.379747C35.095 1.5646 31.7927 5.16642 30.5346 9.76351C29.4732 13.7445 29.4732 26.9196 30.5346 30.9006C31.4782 34.4077 33.6797 37.3934 36.3531 38.8626C38.2008 39.8578 39.0264 40 43.351 40C47.7934 40 48.4618 39.9052 50.1523 38.8152C52.7863 37.2038 54.2409 35.4029 55.4989 32.2276C56.4818 29.621 56.5211 29.3367 56.5211 20.3321L56.5211 11.0905L55.2238 7.9152C53.1008 2.65463 49.0908 -0.0467603 43.5475 0.000622161C41.8177 0.0480374 39.852 0.190218 39.1837 0.379747L39.1837 0.379747ZM47.7543 5.68785C49.4841 6.73046 50.9387 8.95793 51.607 11.5645C52.354 14.3133 52.2361 27.1567 51.4498 29.3841C49.9165 33.7916 47.4004 35.7347 43.1545 35.6873C39.1445 35.64 36.9429 34.1708 35.2524 30.2846C34.6234 28.8628 34.5055 27.5358 34.5055 20.5691C34.5055 11.5645 34.7807 10.0953 36.8643 7.39395C38.0831 5.87738 38.83 5.45087 41.9751 4.55041C43.2725 4.17128 46.221 4.73997 47.7543 5.68785L47.7543 5.68785Z" id="Shape" fill="#003293" fill-rule="evenodd" stroke="none" />
          <path d="M165.303 0.948449C159.917 3.2233 157.519 9.14738 159.72 14.7871C160.9 17.7729 162.865 19.0998 170.217 21.9908C175.878 24.2183 177.018 24.8343 178.119 26.2561C179.495 28.057 179.692 29.4314 178.827 31.8958C177.962 34.4076 175.288 35.6872 171.082 35.6872C166.639 35.6872 164.359 34.4076 162.944 31.0902C162 28.9101 161.961 28.8627 160.074 28.8627C158.069 28.8627 157.99 28.9575 158.148 31.2324C158.344 34.0285 160.703 37.1564 164.005 38.9573C165.539 39.8104 166.561 39.9526 171.121 40C176.153 40 176.547 39.9526 178.669 38.673C182.797 36.2086 184.802 31.4693 183.702 26.73C182.758 22.6069 180.517 20.8533 172.222 17.8202C164.988 15.1663 163.652 14.0288 163.652 10.5218C163.652 9.38436 163.927 7.96256 164.281 7.29908C165.814 4.50289 171.947 3.60246 175.367 5.73509C176.743 6.58817 177.411 7.39384 178.08 9.1C178.945 11.1379 179.141 11.3274 180.478 11.3274C182.601 11.3274 183.073 10.8061 182.758 8.81564C182.365 6.16163 180.557 3.64984 177.805 1.89629C175.564 0.427143 174.895 0.237548 171.554 0.0953679C168.448 -0.0467795 167.347 0.0953679 165.303 0.948449L165.303 0.948449Z" id="Shape" fill="#003293" stroke="none" />
          <path d="M0.184277 1.23272C-0.0122915 1.70668 -0.0515969 2.70191 0.0663467 3.50757L0.30222 4.92934L5.41303 5.16632L10.5238 5.4033L10.6418 22.6068L10.7204 39.8103L12.804 39.6681L14.8484 39.5259L14.9663 22.3698L15.0449 5.2137L20.2737 5.07152L25.4631 4.92934L25.4631 2.7967L25.4631 0.664003L13.0006 0.521823C1.40302 0.427058 0.498788 0.47444 0.184277 1.23272L0.184277 1.23272Z" id="Shape" fill="#003293" stroke="none" />
          <path d="M64.8162 1.46973C64.4623 3.12848 64.541 38.4834 64.9341 39.1943C65.1307 39.6208 65.9169 39.763 67.175 39.6682L69.1014 39.526L69.2979 31.7062L69.4945 23.8865L72.9934 23.7443C74.9198 23.6495 76.8462 23.6969 77.3573 23.8391C77.947 24.0286 79.2443 26.1613 81.6818 31.0902C83.5689 34.9763 85.3773 38.4834 85.7311 38.9099C86.5567 40.0473 90.1343 40.1421 90.1343 39.0047C90.1343 38.3886 85.8884 29.384 83.1364 24.2656C82.6253 23.2704 82.704 23.1756 84.3945 22.1803C91.1958 18.3415 91.4317 6.16161 84.8269 2.18064C82.6253 0.853664 79.4802 0.427124 72.2858 0.427124C65.1307 0.427124 65.052 0.427124 64.8162 1.46973L64.8162 1.46973ZM82.0749 5.97201C84.7089 7.82032 85.8097 12.2753 84.3551 15.5927C83.0577 18.531 81.6817 19.0998 75.1163 19.3367L69.2979 19.4789L69.2979 12.4174C69.2979 8.53122 69.3765 5.21372 69.4551 5.11896C69.8089 4.69242 81.3279 5.4507 82.0749 5.97201L82.0749 5.97201Z" id="Shape" fill="#003293" fill-rule="evenodd" stroke="none" />
          <path d="M97.4075 1.04334C97.2895 1.3277 97.2502 10.1427 97.2895 20.5691L97.4075 39.5261L99.4518 39.6683C101.968 39.8579 101.889 40.1423 102.047 30.7585L102.125 23.8866L106.332 23.7918L110.538 23.697L113.762 30.1898C118.48 39.7157 118.519 39.7631 120.642 39.7631C121.821 39.7631 122.45 39.5261 122.608 39.0522C122.765 38.6731 121.31 35.2608 119.187 31.1376C117.182 27.1566 115.492 23.7444 115.413 23.5548C115.335 23.3653 116.121 22.7018 117.143 22.0383C120.642 19.9056 122.097 16.8725 122.097 11.8962C122.057 6.30391 119.541 2.6547 114.706 1.13814C111.639 0.19029 97.6827 0.0954597 97.4075 1.04334L97.4075 1.04334ZM115.177 6.39871C116.868 7.86789 117.733 10.2375 117.497 12.6545C117.182 15.7351 116.317 17.2516 114.352 18.389C112.779 19.2421 111.836 19.3843 107.236 19.3843L101.929 19.3843L101.929 12.3702C101.929 8.48396 102.007 5.21388 102.086 5.11912C102.164 5.02432 104.916 5.02432 108.14 5.1665C113.33 5.35606 114.195 5.54566 115.177 6.39871L115.177 6.39871Z" id="Shape" fill="#003293" fill-rule="evenodd" stroke="none" />
          <path d="M130.117 0.758888C129.96 0.901068 129.842 9.76349 129.842 20.4268L129.842 39.763L141.164 39.6682L152.447 39.526L152.447 37.6303L152.447 35.7346L143.405 35.4977L134.363 35.2607L134.245 28.7679L134.127 22.2277L142.501 22.133L150.875 21.9908L150.875 19.8581L150.875 17.7254L142.54 17.5833L134.166 17.4885L134.166 11.3274L134.166 5.16641L142.54 5.16641C151.975 5.16641 152.408 5.02423 152.172 2.32284L152.054 0.66409L141.203 0.52191C135.267 0.474527 130.274 0.569325 130.117 0.758888L130.117 0.758888Z" id="Shape" fill="#003293" stroke="none" />
        </g>
      </g>
      <g id="Group">
        <path d="M9.41477 1.8039C9.103 2.82346 6.85843 9.25454 4.42681 16.0777C1.99518 22.9793 0 28.8614 0 29.2535C0 29.6456 0.748183 29.8809 1.68344 29.724C3.17983 29.4888 3.74096 28.3908 6.92079 19.2932C8.91597 13.6464 10.8488 7.99964 11.2852 6.74486L11.9711 4.392L12.844 6.74486C14.7145 11.7642 17.9566 21.0186 19.3283 25.3321C20.6376 29.3319 21.0118 29.8809 22.5705 29.8809C23.5057 29.8809 24.3163 29.724 24.3163 29.4888C24.3163 29.2535 23.0693 25.5674 21.5105 21.2539C19.9518 16.9404 18.7048 13.2543 18.7048 13.0975C18.7048 12.8622 17.8943 10.4309 16.8343 7.68595C15.8367 4.86257 14.9639 2.19607 14.9639 1.8039C14.9639 0.86276 13.4675 0.0784912 11.4723 0.0784912C10.4747 0.0784912 9.78885 0.705885 9.41477 1.8039L9.41477 1.8039Z" id="Shape" fill="#003293" stroke="none" />
        <path d="M30.9878 0.549153C30.7384 0.862849 30.5513 7.60763 30.5513 15.5288L30.5513 29.9594L32.2971 29.7241C33.9805 29.4888 33.9805 29.4104 34.1676 23.3715L34.3546 17.3326L39.2802 17.3326C43.8317 17.3326 44.2682 17.1758 44.2682 15.7641C44.2682 14.3523 43.8317 14.1955 39.2802 14.1955L34.2923 14.1955L34.2923 9.0977L34.2923 4.07839L41.026 3.8431C47.1986 3.60782 47.6974 3.52941 47.6974 2.03928C47.6974 0.549153 47.1986 0.470688 39.5296 0.235402C35.1028 0.157045 31.2372 0.313866 30.9878 0.549153L30.9878 0.549153Z" id="Shape" fill="#003293" stroke="none" />
        <path d="M54.8674 14.9797L54.8674 29.9593L56.6132 29.724C58.2966 29.4887 58.2966 29.4103 58.4837 23.4498L58.6707 17.4109L63.7834 17.1757C67.8361 17.0188 68.8961 16.7051 68.8961 15.7639C68.8961 14.8228 67.8361 14.5091 63.7834 14.3522L58.6084 14.1169L58.6084 9.09758L58.6084 3.99986L65.5292 3.99986C72.3253 3.99986 72.3876 3.99986 72.2006 2.19604C72.0135 0.549037 71.8265 0.470572 63.4717 0.235286L54.8674 0L54.8674 14.9797L54.8674 14.9797Z" id="Shape" fill="#003293" stroke="none" />
        <path d="M79.6827 1.33343C79.6203 2.03929 79.558 8.78407 79.6827 16.2346L79.8698 29.881L81.4285 29.881L82.9249 29.881L82.8002 15.1367C82.6131 0.78445 82.6131 0.470699 81.2414 0.235413C80.3686 0.0785914 79.8698 0.470699 79.6827 1.33343L79.6827 1.33343Z" id="Shape" fill="#003293" stroke="none" />
        <path d="M89.7833 2.03919C89.7833 3.92142 89.908 3.99989 93.836 3.99989L97.8887 3.99989L98.0134 16.7051L98.2005 29.4888L99.9463 29.724L101.63 29.9593L101.63 17.0188L101.63 3.99989L105.682 3.99989C109.61 3.99989 109.735 3.92142 109.735 2.03919L109.735 0.0784912L99.7592 0.0784912L89.7833 0.0784912L89.7833 2.03919L89.7833 2.03919Z" id="Shape" fill="#003293" stroke="none" />
        <path d="M114.536 0.627315C114.286 0.862601 114.099 1.80375 114.099 2.58801C114.099 3.84286 114.66 3.99973 118.152 3.99973L122.205 3.99973L122.329 16.705L122.516 29.4886L124.262 29.7239L125.946 29.9592L125.946 17.0187L125.946 3.99973L129.936 3.99973C133.365 3.99973 133.926 3.76444 134.238 2.50955C134.425 1.64687 134.363 0.784191 134.176 0.548905C133.677 -0.0784886 115.035 -0.000132151 114.536 0.627315L114.536 0.627315Z" id="Shape" fill="#003293" stroke="none" />
        <path d="M141.346 0.549083C141.097 0.862779 140.91 7.60756 140.91 15.5287L140.91 29.9594L142.655 29.7241L144.339 29.4888L144.339 14.9797C144.339 0.94119 144.276 0.470618 143.092 0.235332C142.344 0.0785107 141.595 0.235332 141.346 0.549083L141.346 0.549083Z" id="Shape" fill="#003293" stroke="none" />
        <path d="M165.039 0.627377C164.789 0.862663 164.602 7.60744 164.602 15.5286L164.602 29.8808L172.022 29.8808C178.631 29.8808 179.566 29.7239 181.499 28.077C185.552 24.7046 185.988 19.2931 182.621 15.8423L181.25 14.509L182.996 12.3131C184.43 10.5092 184.617 9.72496 184.367 7.29369C183.868 3.84292 181.624 1.25482 178.382 0.548966C175.327 -0.0784273 165.538 -0.0784273 165.039 0.627377L165.039 0.627377ZM179.878 5.88199C180.564 7.21524 180.689 8.2348 180.252 9.64651C179.504 12.2346 178.506 12.6268 172.957 12.6268L168.343 12.6268L168.343 8.31326L168.343 3.99976L173.643 3.99976C178.506 3.99976 179.005 4.15658 179.878 5.88199L179.878 5.88199ZM179.379 17.4109C182.123 19.5284 181.686 24.5477 178.569 25.9594C177.696 26.43 175.015 26.7437 172.645 26.7437L168.343 26.7437L168.343 21.7244C168.343 18.4304 168.593 16.5481 169.154 16.2344C170.526 15.4502 178.008 16.3128 179.379 17.4109L179.379 17.4109Z" id="Shape" fill="#003293" fill-rule="evenodd" stroke="none" />
        <path d="M193.096 0.627531C192.847 0.862817 192.66 7.60759 192.66 15.5287L192.66 29.881L194.218 29.881L195.777 29.881L195.777 16.9405L195.777 3.99995L200.64 3.99995C206.501 3.99995 208.247 5.17632 208.247 9.09767C208.247 11.9211 206.501 14.1955 204.381 14.1955C202.511 14.1955 203.072 17.8031 205.878 23.4499C208.871 29.4104 209.245 29.881 211.302 29.881C213.11 29.881 212.923 29.0967 209.432 22.6657C206.938 18.1169 206.875 17.8031 207.998 16.7836C211.552 13.6465 212.113 12.4701 211.801 8.47027C211.489 3.92148 210.055 1.96084 206.252 0.862817C203.197 8.31112e-05 193.72 -0.235149 193.096 0.627531L193.096 0.627531Z" id="Shape" fill="#003293" stroke="none" />
        <path d="M219.782 1.09794C219.595 1.64692 219.532 8.23482 219.595 15.7639L219.782 29.4887L228.386 29.7239C236.554 29.8808 236.928 29.8808 236.928 28.3907C236.928 26.9006 236.429 26.7437 230.256 26.5869L223.523 26.3516L223.335 21.4106L223.148 16.5481L228.511 16.5481C233.374 16.5481 233.81 16.3913 233.81 14.9796C233.81 13.5679 233.374 13.411 228.511 13.411L223.211 13.411L223.211 8.70539L223.211 3.99978L230.132 3.99978C236.928 3.99978 236.99 3.99978 236.803 2.19596C236.616 0.548956 236.367 0.470492 228.323 0.235206C221.964 0.0783843 219.969 0.235206 219.782 1.09794L219.782 1.09794Z" id="Shape" fill="#003293" stroke="none" />
        <path d="M243.163 1.41178C243.163 2.19611 245.096 8.78401 247.465 16.1561L251.705 29.4888L254.012 29.4888L256.381 29.4888L260.683 16.2346C263.052 8.94083 264.985 2.35293 264.985 1.56866C264.985 -0.156755 262.99 -0.470451 262.055 1.01968C261.681 1.56866 260.06 6.27433 258.439 11.4505C256.817 16.6267 255.196 21.6461 254.822 22.6657L254.136 24.4695L253.388 22.6657C252.952 21.6461 251.331 16.6267 249.71 11.4505C248.089 6.27433 246.53 1.56866 246.156 1.01968C245.158 -0.392041 243.163 -0.156755 243.163 1.41178L243.163 1.41178Z" id="Shape" fill="#003293" stroke="none" />
        <path d="M272.155 3.37249C271.968 5.25472 271.844 11.8426 271.968 18.1169L272.155 29.4888L273.901 29.7241L275.585 29.9594L275.46 15.215C275.273 0.705928 275.273 0.470642 273.901 0.235356C272.716 7.01547e-05 272.529 0.470642 272.155 3.37249L272.155 3.37249Z" id="Shape" fill="#003293" stroke="none" />
        <path d="M295.412 2.11751C295.287 2.82337 295.287 9.41127 295.412 16.6266L295.599 29.8808L297.095 29.8808L298.654 29.8808L298.654 15.3718L298.654 0.862671L297.158 0.862671C296.222 0.862671 295.536 1.41165 295.412 2.11751L295.412 2.11751Z" id="Shape" fill="#E2007A" stroke="none" />
        <path d="M305.512 2.43126C305.512 3.84292 305.949 3.9998 309.565 3.9998L313.617 3.9998L313.742 16.705L313.929 29.4887L315.488 29.4887L317.047 29.4887L317.234 16.705L317.358 3.9998L321.411 3.9998C325.027 3.9998 325.464 3.84292 325.464 2.43126C325.464 0.941082 325.027 0.862671 315.488 0.862671C305.949 0.862671 305.512 0.941082 305.512 2.43126L305.512 2.43126Z" id="Shape" fill="#E2007A" stroke="none" />
        <path d="M331.512 14.4306C328.893 21.9597 326.711 28.5476 326.711 29.0181C326.711 29.5671 327.335 29.8808 328.145 29.7239C329.642 29.4887 330.826 26.8221 335.128 13.8816C336.5 9.56807 337.934 5.96043 338.246 5.8036C338.62 5.72514 340.74 10.9798 342.984 17.5677C346.975 29.0965 348.284 31.2925 349.843 29.3318C350.092 29.0181 348.159 22.5086 345.541 14.9796L340.74 1.25481L338.495 1.01953L336.313 0.784241L331.512 14.4306L331.512 14.4306Z" id="Shape" fill="#E2007A" stroke="none" />
        <path d="M356.763 15.1365L356.951 29.4887L365.555 29.724C373.723 29.8808 374.097 29.8808 374.097 28.3907C374.097 26.9006 373.598 26.7438 367.425 26.5869L360.691 26.3516L360.504 13.568L360.38 0.862671L358.509 0.862671L356.639 0.862671L356.763 15.1365L356.763 15.1365Z" id="Shape" fill="#E2007A" stroke="none" />
        <path d="M380.456 15.1365L380.643 29.4887L382.202 29.4887L383.761 29.4887L383.948 15.1365L384.072 0.862671L382.202 0.862671L380.331 0.862671L380.456 15.1365L380.456 15.1365Z" id="Shape" fill="#E2007A" stroke="none" />
        <path d="M398.35 6.11732C397.353 9.01916 396.106 12.4699 395.607 13.7248C392.115 23.3713 390.432 28.7829 390.931 29.3318C392.489 31.3709 393.799 29.0965 397.727 17.5677C399.971 10.9798 402.091 5.72516 402.403 5.80362C402.715 5.96044 404.772 11.3719 406.954 17.9598C410.571 28.626 411.132 29.8808 412.504 29.8808C413.314 29.8808 414 29.4103 414 28.8613C414 28.3907 411.88 21.8028 409.261 14.3522L404.461 0.862671L402.341 0.862671C400.345 0.862671 400.158 1.09796 398.35 6.11732L398.35 6.11732Z" id="Shape" fill="#E2007A" stroke="none" />
      </g>
    </g>
  </g>
</svg>